<mxfile host="app.diagrams.net" agent="Mozilla/5.0 (Windows NT 10.0; Win64; x64; rv:133.0) Gecko/20100101 Firefox/133.0" version="26.0.4">
  <diagram name="Page-1" id="2iZMz1MSZMlMYcdQClPu">
    <mxGraphModel dx="1588" dy="1966" grid="1" gridSize="10" guides="1" tooltips="1" connect="1" arrows="1" fold="1" page="1" pageScale="1" pageWidth="850" pageHeight="1100" math="0" shadow="0">
      <root>
        <mxCell id="0" />
        <mxCell id="1" parent="0" />
        <mxCell id="THEJkEJSOx_dDSsdTkwO-93" value="" style="endArrow=none;html=1;rounded=0;strokeWidth=1;dashed=1;dashPattern=8 8;" edge="1" parent="1">
          <mxGeometry width="50" height="50" relative="1" as="geometry">
            <mxPoint x="1160" y="600" as="sourcePoint" />
            <mxPoint x="1160" y="-10" as="targetPoint" />
          </mxGeometry>
        </mxCell>
        <mxCell id="THEJkEJSOx_dDSsdTkwO-95" value="" style="endArrow=none;html=1;rounded=0;strokeWidth=1;dashed=1;dashPattern=8 8;" edge="1" parent="1">
          <mxGeometry width="50" height="50" relative="1" as="geometry">
            <mxPoint x="900" y="600" as="sourcePoint" />
            <mxPoint x="899.18" y="10" as="targetPoint" />
          </mxGeometry>
        </mxCell>
        <mxCell id="THEJkEJSOx_dDSsdTkwO-94" value="" style="endArrow=none;html=1;rounded=0;strokeWidth=1;dashed=1;dashPattern=8 8;" edge="1" parent="1">
          <mxGeometry width="50" height="50" relative="1" as="geometry">
            <mxPoint x="759" y="600" as="sourcePoint" />
            <mxPoint x="759.05" y="-5" as="targetPoint" />
          </mxGeometry>
        </mxCell>
        <mxCell id="THEJkEJSOx_dDSsdTkwO-96" value="" style="endArrow=none;html=1;rounded=0;strokeWidth=1;dashed=1;dashPattern=8 8;" edge="1" parent="1">
          <mxGeometry width="50" height="50" relative="1" as="geometry">
            <mxPoint x="1050.82" y="600" as="sourcePoint" />
            <mxPoint x="1049.9999999999998" y="10" as="targetPoint" />
          </mxGeometry>
        </mxCell>
        <mxCell id="THEJkEJSOx_dDSsdTkwO-1" value="&lt;div style=&quot;line-height: 200%;&quot; align=&quot;right&quot;&gt;&lt;b&gt;&lt;font style=&quot;font-size: 20px; line-height: 200%;&quot;&gt;Properties&lt;/font&gt;&lt;/b&gt;&lt;/div&gt;&lt;div align=&quot;right&quot;&gt;&lt;font style=&quot;font-size: 20px;&quot;&gt;&lt;br&gt;&lt;/font&gt;&lt;/div&gt;&lt;div style=&quot;line-height: 200%;&quot; align=&quot;right&quot;&gt;&lt;font style=&quot;font-size: 20px; line-height: 200%;&quot;&gt;Existence and representation&lt;/font&gt;&lt;/div&gt;&lt;div style=&quot;line-height: 200%;&quot; align=&quot;right&quot;&gt;&lt;font style=&quot;font-size: 20px; line-height: 200%;&quot;&gt;Ownership and control&lt;/font&gt;&lt;/div&gt;&lt;div style=&quot;line-height: 200%;&quot; align=&quot;right&quot;&gt;&lt;font style=&quot;font-size: 20px; line-height: 200%;&quot;&gt;Access and availability&lt;/font&gt;&lt;/div&gt;&lt;div style=&quot;line-height: 200%;&quot; align=&quot;right&quot;&gt;&lt;font style=&quot;font-size: 20px; line-height: 200%;&quot;&gt;Transparency&lt;/font&gt;&lt;/div&gt;&lt;div style=&quot;line-height: 200%;&quot; align=&quot;right&quot;&gt;&lt;font style=&quot;font-size: 20px; line-height: 200%;&quot;&gt;Persistence&lt;/font&gt;&lt;/div&gt;&lt;div style=&quot;line-height: 200%;&quot; align=&quot;right&quot;&gt;&lt;font style=&quot;font-size: 20px; line-height: 200%;&quot;&gt;Portability&lt;/font&gt;&lt;/div&gt;&lt;div style=&quot;line-height: 200%;&quot; align=&quot;right&quot;&gt;&lt;font style=&quot;font-size: 20px; line-height: 200%;&quot;&gt;Interoperability&lt;/font&gt;&lt;/div&gt;&lt;div style=&quot;line-height: 200%;&quot; align=&quot;right&quot;&gt;&lt;font style=&quot;font-size: 20px; line-height: 200%;&quot;&gt;Consent&lt;/font&gt;&lt;/div&gt;&lt;div style=&quot;line-height: 200%;&quot; align=&quot;right&quot;&gt;&lt;font style=&quot;font-size: 20px; line-height: 200%;&quot;&gt;Security and protection&lt;/font&gt;&lt;/div&gt;&lt;div style=&quot;line-height: 200%;&quot; align=&quot;right&quot;&gt;&lt;font style=&quot;font-size: 20px; line-height: 200%;&quot;&gt;Privacy and minimal disclosure&lt;/font&gt;&lt;/div&gt;&lt;div style=&quot;line-height: 200%;&quot; align=&quot;right&quot;&gt;&lt;font style=&quot;font-size: 20px; line-height: 200%;&quot;&gt;Standard&lt;/font&gt;&lt;/div&gt;&lt;div style=&quot;line-height: 200%;&quot; align=&quot;right&quot;&gt;&lt;font style=&quot;font-size: 20px; line-height: 200%;&quot;&gt;Cost&lt;/font&gt;&lt;/div&gt;&lt;div style=&quot;line-height: 200%;&quot; align=&quot;right&quot;&gt;&lt;font style=&quot;font-size: 20px; line-height: 200%;&quot;&gt;Usability and consistency&lt;/font&gt;&lt;/div&gt;&lt;div style=&quot;line-height: 200%;&quot; align=&quot;right&quot;&gt;&lt;font style=&quot;font-size: 20px; line-height: 200%;&quot;&gt;Decentralization and Autonomy&lt;/font&gt;&lt;/div&gt;&lt;div style=&quot;line-height: 200%;&quot; align=&quot;right&quot;&gt;&lt;font style=&quot;font-size: 20px; line-height: 200%;&quot;&gt;Verifiability and Authenticity&lt;/font&gt;&lt;/div&gt;" style="rounded=1;whiteSpace=wrap;html=1;align=right;fillColor=none;strokeColor=none;strokeWidth=2;" vertex="1" parent="1">
          <mxGeometry x="240" y="60" width="360" height="412.5" as="geometry" />
        </mxCell>
        <mxCell id="THEJkEJSOx_dDSsdTkwO-3" value="2" style="rounded=0;whiteSpace=wrap;html=1;fillColor=#ffe6cc;strokeColor=#d79b00;" vertex="1" parent="1">
          <mxGeometry x="620" y="10" width="40" height="20" as="geometry" />
        </mxCell>
        <mxCell id="THEJkEJSOx_dDSsdTkwO-4" value="4" style="rounded=0;whiteSpace=wrap;html=1;fillColor=#ffe6cc;strokeColor=#d79b00;" vertex="1" parent="1">
          <mxGeometry x="620" y="50" width="80" height="20" as="geometry" />
        </mxCell>
        <mxCell id="THEJkEJSOx_dDSsdTkwO-5" value="1" style="rounded=0;whiteSpace=wrap;html=1;fillColor=#dae8fc;strokeColor=#6c8ebf;" vertex="1" parent="1">
          <mxGeometry x="620" y="90" width="20" height="20" as="geometry" />
        </mxCell>
        <mxCell id="THEJkEJSOx_dDSsdTkwO-7" value="2" style="rounded=0;whiteSpace=wrap;html=1;fillColor=#d5e8d4;strokeColor=#82b366;" vertex="1" parent="1">
          <mxGeometry x="620" y="130" width="40" height="20" as="geometry" />
        </mxCell>
        <mxCell id="THEJkEJSOx_dDSsdTkwO-8" value="4" style="rounded=0;whiteSpace=wrap;html=1;fillColor=#d5e8d4;strokeColor=#82b366;" vertex="1" parent="1">
          <mxGeometry x="620" y="170" width="80" height="20" as="geometry" />
        </mxCell>
        <mxCell id="THEJkEJSOx_dDSsdTkwO-9" value="10" style="rounded=0;whiteSpace=wrap;html=1;fillColor=#ffe6cc;strokeColor=#d79b00;" vertex="1" parent="1">
          <mxGeometry x="660" y="410" width="200" height="20" as="geometry" />
        </mxCell>
        <mxCell id="THEJkEJSOx_dDSsdTkwO-10" value="1" style="rounded=0;whiteSpace=wrap;html=1;fillColor=#d5e8d4;strokeColor=#82b366;" vertex="1" parent="1">
          <mxGeometry x="620" y="250" width="20" height="20" as="geometry" />
        </mxCell>
        <mxCell id="THEJkEJSOx_dDSsdTkwO-11" value="4" style="rounded=0;whiteSpace=wrap;html=1;fillColor=#d5e8d4;strokeColor=#82b366;" vertex="1" parent="1">
          <mxGeometry x="620" y="290" width="80" height="20" as="geometry" />
        </mxCell>
        <mxCell id="THEJkEJSOx_dDSsdTkwO-12" value="8" style="rounded=0;whiteSpace=wrap;html=1;fillColor=#ffe6cc;strokeColor=#d79b00;" vertex="1" parent="1">
          <mxGeometry x="620" y="330" width="160" height="20" as="geometry" />
        </mxCell>
        <mxCell id="THEJkEJSOx_dDSsdTkwO-13" value="1" style="rounded=0;whiteSpace=wrap;html=1;fillColor=#d5e8d4;strokeColor=#82b366;" vertex="1" parent="1">
          <mxGeometry x="620" y="370" width="20" height="20" as="geometry" />
        </mxCell>
        <mxCell id="THEJkEJSOx_dDSsdTkwO-14" value="2" style="rounded=0;whiteSpace=wrap;html=1;fillColor=#d5e8d4;strokeColor=#82b366;" vertex="1" parent="1">
          <mxGeometry x="620" y="410" width="40" height="20" as="geometry" />
        </mxCell>
        <mxCell id="THEJkEJSOx_dDSsdTkwO-15" value="2" style="rounded=0;whiteSpace=wrap;html=1;fillColor=#dae8fc;strokeColor=#6c8ebf;" vertex="1" parent="1">
          <mxGeometry x="620" y="450" width="40" height="20" as="geometry" />
        </mxCell>
        <mxCell id="THEJkEJSOx_dDSsdTkwO-16" value="3" style="rounded=0;whiteSpace=wrap;html=1;fillColor=#dae8fc;strokeColor=#6c8ebf;" vertex="1" parent="1">
          <mxGeometry x="620" y="490" width="60" height="20" as="geometry" />
        </mxCell>
        <mxCell id="THEJkEJSOx_dDSsdTkwO-17" value="2" style="rounded=0;whiteSpace=wrap;html=1;fillColor=#d5e8d4;strokeColor=#82b366;" vertex="1" parent="1">
          <mxGeometry x="620" y="530" width="40" height="20" as="geometry" />
        </mxCell>
        <mxCell id="THEJkEJSOx_dDSsdTkwO-18" value="4" style="rounded=0;whiteSpace=wrap;html=1;fillColor=#dae8fc;strokeColor=#6c8ebf;" vertex="1" parent="1">
          <mxGeometry x="620" y="570" width="80" height="20" as="geometry" />
        </mxCell>
        <mxCell id="THEJkEJSOx_dDSsdTkwO-19" value="2" style="rounded=0;whiteSpace=wrap;html=1;fillColor=#d5e8d4;strokeColor=#82b366;" vertex="1" parent="1">
          <mxGeometry x="660" y="450" width="40" height="20" as="geometry" />
        </mxCell>
        <mxCell id="THEJkEJSOx_dDSsdTkwO-20" value="3" style="rounded=0;whiteSpace=wrap;html=1;fillColor=#d5e8d4;strokeColor=#82b366;" vertex="1" parent="1">
          <mxGeometry x="640" y="90" width="60" height="20" as="geometry" />
        </mxCell>
        <mxCell id="THEJkEJSOx_dDSsdTkwO-21" value="5" style="rounded=0;whiteSpace=wrap;html=1;fillColor=#d5e8d4;strokeColor=#82b366;" vertex="1" parent="1">
          <mxGeometry x="680" y="490" width="100" height="20" as="geometry" />
        </mxCell>
        <mxCell id="THEJkEJSOx_dDSsdTkwO-23" value="4" style="rounded=0;whiteSpace=wrap;html=1;fillColor=#ffe6cc;strokeColor=#d79b00;" vertex="1" parent="1">
          <mxGeometry x="640" y="370" width="80" height="20" as="geometry" />
        </mxCell>
        <mxCell id="THEJkEJSOx_dDSsdTkwO-2" value="" style="endArrow=none;html=1;rounded=0;strokeWidth=1;" edge="1" parent="1">
          <mxGeometry width="50" height="50" relative="1" as="geometry">
            <mxPoint x="620" y="600" as="sourcePoint" />
            <mxPoint x="620" y="-10" as="targetPoint" />
          </mxGeometry>
        </mxCell>
        <mxCell id="THEJkEJSOx_dDSsdTkwO-24" value="&lt;div&gt;5&lt;/div&gt;" style="rounded=0;whiteSpace=wrap;html=1;fillColor=#ffe6cc;strokeColor=#d79b00;" vertex="1" parent="1">
          <mxGeometry x="640" y="250" width="100" height="20" as="geometry" />
        </mxCell>
        <mxCell id="THEJkEJSOx_dDSsdTkwO-26" value="&lt;div&gt;5&lt;/div&gt;" style="rounded=0;whiteSpace=wrap;html=1;fillColor=#ffe6cc;strokeColor=#d79b00;" vertex="1" parent="1">
          <mxGeometry x="700" y="290" width="100" height="20" as="geometry" />
        </mxCell>
        <mxCell id="THEJkEJSOx_dDSsdTkwO-28" value="5" style="rounded=0;whiteSpace=wrap;html=1;fillColor=#ffe6cc;strokeColor=#d79b00;" vertex="1" parent="1">
          <mxGeometry x="660" y="130" width="100" height="20" as="geometry" />
        </mxCell>
        <mxCell id="THEJkEJSOx_dDSsdTkwO-30" value="6" style="rounded=0;whiteSpace=wrap;html=1;fillColor=#ffe6cc;strokeColor=#d79b00;" vertex="1" parent="1">
          <mxGeometry x="700" y="170" width="120" height="20" as="geometry" />
        </mxCell>
        <mxCell id="THEJkEJSOx_dDSsdTkwO-31" value="10" style="rounded=0;whiteSpace=wrap;html=1;fillColor=#ffe6cc;strokeColor=#d79b00;" vertex="1" parent="1">
          <mxGeometry x="620" y="210" width="200" height="20" as="geometry" />
        </mxCell>
        <mxCell id="THEJkEJSOx_dDSsdTkwO-32" value="7" style="rounded=0;whiteSpace=wrap;html=1;fillColor=#ffe6cc;strokeColor=#d79b00;" vertex="1" parent="1">
          <mxGeometry x="700" y="450" width="140" height="20" as="geometry" />
        </mxCell>
        <mxCell id="THEJkEJSOx_dDSsdTkwO-33" value="8" style="rounded=0;whiteSpace=wrap;html=1;fillColor=#ffe6cc;strokeColor=#d79b00;" vertex="1" parent="1">
          <mxGeometry x="660" y="530" width="160" height="20" as="geometry" />
        </mxCell>
        <mxCell id="THEJkEJSOx_dDSsdTkwO-34" value="6" style="rounded=0;whiteSpace=wrap;html=1;fillColor=#ffe6cc;strokeColor=#d79b00;" vertex="1" parent="1">
          <mxGeometry x="780" y="490" width="120" height="20" as="geometry" />
        </mxCell>
        <mxCell id="THEJkEJSOx_dDSsdTkwO-35" value="9" style="rounded=0;whiteSpace=wrap;html=1;fillColor=#ffe6cc;strokeColor=#d79b00;" vertex="1" parent="1">
          <mxGeometry x="700" y="90" width="180" height="20" as="geometry" />
        </mxCell>
        <mxCell id="THEJkEJSOx_dDSsdTkwO-36" value="1" style="rounded=0;whiteSpace=wrap;html=1;fillColor=#e1d5e7;strokeColor=#9673a6;" vertex="1" parent="1">
          <mxGeometry x="700" y="50" width="20" height="20" as="geometry" />
        </mxCell>
        <mxCell id="THEJkEJSOx_dDSsdTkwO-37" value="10" style="rounded=0;whiteSpace=wrap;html=1;fillColor=#e1d5e7;strokeColor=#9673a6;" vertex="1" parent="1">
          <mxGeometry x="660" y="10" width="200" height="20" as="geometry" />
        </mxCell>
        <mxCell id="THEJkEJSOx_dDSsdTkwO-38" value="10" style="rounded=0;whiteSpace=wrap;html=1;fillColor=#e1d5e7;strokeColor=#9673a6;" vertex="1" parent="1">
          <mxGeometry x="780" y="330" width="200" height="20" as="geometry" />
        </mxCell>
        <mxCell id="THEJkEJSOx_dDSsdTkwO-39" value="13" style="rounded=0;whiteSpace=wrap;html=1;fillColor=#e1d5e7;strokeColor=#9673a6;" vertex="1" parent="1">
          <mxGeometry x="820" y="530" width="260" height="20" as="geometry" />
        </mxCell>
        <mxCell id="THEJkEJSOx_dDSsdTkwO-40" value="8" style="rounded=0;whiteSpace=wrap;html=1;fillColor=#e1d5e7;strokeColor=#9673a6;" vertex="1" parent="1">
          <mxGeometry x="720" y="370" width="160" height="20" as="geometry" />
        </mxCell>
        <mxCell id="THEJkEJSOx_dDSsdTkwO-41" value="7" style="rounded=0;whiteSpace=wrap;html=1;fillColor=#e1d5e7;strokeColor=#9673a6;" vertex="1" parent="1">
          <mxGeometry x="820" y="210" width="140" height="20" as="geometry" />
        </mxCell>
        <mxCell id="THEJkEJSOx_dDSsdTkwO-42" value="6" style="rounded=0;whiteSpace=wrap;html=1;fillColor=#e1d5e7;strokeColor=#9673a6;" vertex="1" parent="1">
          <mxGeometry x="800" y="290" width="120" height="20" as="geometry" />
        </mxCell>
        <mxCell id="THEJkEJSOx_dDSsdTkwO-43" value="14" style="rounded=0;whiteSpace=wrap;html=1;fillColor=#e1d5e7;strokeColor=#9673a6;" vertex="1" parent="1">
          <mxGeometry x="760" y="130" width="280" height="20" as="geometry" />
        </mxCell>
        <mxCell id="THEJkEJSOx_dDSsdTkwO-44" value="10" style="rounded=0;whiteSpace=wrap;html=1;fillColor=#e1d5e7;strokeColor=#9673a6;" vertex="1" parent="1">
          <mxGeometry x="820" y="170" width="200" height="20" as="geometry" />
        </mxCell>
        <mxCell id="THEJkEJSOx_dDSsdTkwO-45" value="8" style="rounded=0;whiteSpace=wrap;html=1;fillColor=#e1d5e7;strokeColor=#9673a6;" vertex="1" parent="1">
          <mxGeometry x="860" y="410" width="160" height="20" as="geometry" />
        </mxCell>
        <mxCell id="THEJkEJSOx_dDSsdTkwO-46" value="7" style="rounded=0;whiteSpace=wrap;html=1;fillColor=#e1d5e7;strokeColor=#9673a6;" vertex="1" parent="1">
          <mxGeometry x="840" y="450" width="140" height="20" as="geometry" />
        </mxCell>
        <mxCell id="THEJkEJSOx_dDSsdTkwO-48" value="13" style="rounded=0;whiteSpace=wrap;html=1;fillColor=#e1d5e7;strokeColor=#9673a6;" vertex="1" parent="1">
          <mxGeometry x="740" y="250" width="260" height="20" as="geometry" />
        </mxCell>
        <mxCell id="THEJkEJSOx_dDSsdTkwO-49" value="8" style="rounded=0;whiteSpace=wrap;html=1;fillColor=#e1d5e7;strokeColor=#9673a6;" vertex="1" parent="1">
          <mxGeometry x="880" y="90" width="160" height="20" as="geometry" />
        </mxCell>
        <mxCell id="THEJkEJSOx_dDSsdTkwO-50" value="6" style="rounded=0;whiteSpace=wrap;html=1;fillColor=#e1d5e7;strokeColor=#9673a6;" vertex="1" parent="1">
          <mxGeometry x="700" y="570" width="120" height="20" as="geometry" />
        </mxCell>
        <mxCell id="THEJkEJSOx_dDSsdTkwO-51" value="22" style="rounded=0;whiteSpace=wrap;html=1;fillColor=#b0e3e6;strokeColor=#0e8088;" vertex="1" parent="1">
          <mxGeometry x="720" y="50" width="440" height="20" as="geometry" />
        </mxCell>
        <mxCell id="THEJkEJSOx_dDSsdTkwO-53" value="15" style="rounded=0;whiteSpace=wrap;html=1;fillColor=#b0e3e6;strokeColor=#0e8088;" vertex="1" parent="1">
          <mxGeometry x="860" y="10" width="300" height="20" as="geometry" />
        </mxCell>
        <mxCell id="THEJkEJSOx_dDSsdTkwO-54" value="14" style="rounded=0;whiteSpace=wrap;html=1;fillColor=#b0e3e6;strokeColor=#0e8088;" vertex="1" parent="1">
          <mxGeometry x="880" y="370" width="280" height="20" as="geometry" />
        </mxCell>
        <mxCell id="THEJkEJSOx_dDSsdTkwO-55" value="8" style="rounded=0;whiteSpace=wrap;html=1;fillColor=#b0e3e6;strokeColor=#0e8088;" vertex="1" parent="1">
          <mxGeometry x="1000" y="250" width="160" height="20" as="geometry" />
        </mxCell>
        <mxCell id="THEJkEJSOx_dDSsdTkwO-56" value="9" style="rounded=0;whiteSpace=wrap;html=1;fillColor=#b0e3e6;strokeColor=#0e8088;" vertex="1" parent="1">
          <mxGeometry x="980" y="330" width="180" height="20" as="geometry" />
        </mxCell>
        <mxCell id="THEJkEJSOx_dDSsdTkwO-57" value="10" style="rounded=0;whiteSpace=wrap;html=1;fillColor=#b0e3e6;strokeColor=#0e8088;" vertex="1" parent="1">
          <mxGeometry x="960" y="210" width="200" height="20" as="geometry" />
        </mxCell>
        <mxCell id="THEJkEJSOx_dDSsdTkwO-58" value="12" style="rounded=0;whiteSpace=wrap;html=1;fillColor=#b0e3e6;strokeColor=#0e8088;" vertex="1" parent="1">
          <mxGeometry x="920" y="290" width="240" height="20" as="geometry" />
        </mxCell>
        <mxCell id="THEJkEJSOx_dDSsdTkwO-59" value="17" style="rounded=0;whiteSpace=wrap;html=1;fillColor=#b0e3e6;strokeColor=#0e8088;" vertex="1" parent="1">
          <mxGeometry x="820" y="570" width="340" height="20" as="geometry" />
        </mxCell>
        <mxCell id="THEJkEJSOx_dDSsdTkwO-60" value="7" style="rounded=0;whiteSpace=wrap;html=1;fillColor=#b0e3e6;strokeColor=#0e8088;" vertex="1" parent="1">
          <mxGeometry x="1020" y="170" width="140" height="20" as="geometry" />
        </mxCell>
        <mxCell id="THEJkEJSOx_dDSsdTkwO-61" value="6" style="rounded=0;whiteSpace=wrap;html=1;fillColor=#b0e3e6;strokeColor=#0e8088;" vertex="1" parent="1">
          <mxGeometry x="1040" y="130" width="120" height="20" as="geometry" />
        </mxCell>
        <mxCell id="THEJkEJSOx_dDSsdTkwO-62" value="7" style="rounded=0;whiteSpace=wrap;html=1;fillColor=#b0e3e6;strokeColor=#0e8088;" vertex="1" parent="1">
          <mxGeometry x="1020" y="410" width="140" height="20" as="geometry" />
        </mxCell>
        <mxCell id="THEJkEJSOx_dDSsdTkwO-63" value="9" style="rounded=0;whiteSpace=wrap;html=1;fillColor=#b0e3e6;strokeColor=#0e8088;" vertex="1" parent="1">
          <mxGeometry x="980" y="450" width="180" height="20" as="geometry" />
        </mxCell>
        <mxCell id="THEJkEJSOx_dDSsdTkwO-64" value="8" style="rounded=0;whiteSpace=wrap;html=1;fillColor=#b0e3e6;strokeColor=#0e8088;" vertex="1" parent="1">
          <mxGeometry x="1040" y="90" width="120" height="20" as="geometry" />
        </mxCell>
        <mxCell id="THEJkEJSOx_dDSsdTkwO-66" value="4" style="rounded=0;whiteSpace=wrap;html=1;fillColor=#b0e3e6;strokeColor=#0e8088;" vertex="1" parent="1">
          <mxGeometry x="1080" y="530" width="80" height="20" as="geometry" />
        </mxCell>
        <mxCell id="THEJkEJSOx_dDSsdTkwO-67" value="6" style="rounded=0;whiteSpace=wrap;html=1;fillColor=#e1d5e7;strokeColor=#9673a6;" vertex="1" parent="1">
          <mxGeometry x="900" y="490" width="120" height="20" as="geometry" />
        </mxCell>
        <mxCell id="THEJkEJSOx_dDSsdTkwO-68" value="7" style="rounded=0;whiteSpace=wrap;html=1;fillColor=#b0e3e6;strokeColor=#0e8088;" vertex="1" parent="1">
          <mxGeometry x="1020" y="490" width="140" height="20" as="geometry" />
        </mxCell>
        <mxCell id="THEJkEJSOx_dDSsdTkwO-85" value="" style="rounded=0;whiteSpace=wrap;html=1;fillColor=#dae8fc;strokeColor=#6c8ebf;" vertex="1" parent="1">
          <mxGeometry x="560" y="660" width="20" height="20" as="geometry" />
        </mxCell>
        <mxCell id="THEJkEJSOx_dDSsdTkwO-86" value="" style="rounded=0;whiteSpace=wrap;html=1;fillColor=#d5e8d4;strokeColor=#82b366;" vertex="1" parent="1">
          <mxGeometry x="690" y="660" width="20" height="20" as="geometry" />
        </mxCell>
        <mxCell id="THEJkEJSOx_dDSsdTkwO-87" value="" style="rounded=0;whiteSpace=wrap;html=1;fillColor=#e1d5e7;strokeColor=#9673a6;" vertex="1" parent="1">
          <mxGeometry x="950" y="660" width="20" height="20" as="geometry" />
        </mxCell>
        <mxCell id="THEJkEJSOx_dDSsdTkwO-88" value="" style="rounded=0;whiteSpace=wrap;html=1;fillColor=#ffe6cc;strokeColor=#d79b00;" vertex="1" parent="1">
          <mxGeometry x="820" y="660" width="20" height="20" as="geometry" />
        </mxCell>
        <mxCell id="THEJkEJSOx_dDSsdTkwO-89" value="" style="rounded=0;whiteSpace=wrap;html=1;fillColor=#b0e3e6;strokeColor=#0e8088;" vertex="1" parent="1">
          <mxGeometry x="1080" y="660" width="20" height="20" as="geometry" />
        </mxCell>
        <mxCell id="THEJkEJSOx_dDSsdTkwO-90" value="Not important&#xa;(irrelevant)" style="text;whiteSpace=wrap;align=center;" vertex="1" parent="1">
          <mxGeometry x="520" y="690" width="100" height="40" as="geometry" />
        </mxCell>
        <mxCell id="THEJkEJSOx_dDSsdTkwO-91" value="Slightly important &#xa;(unnecessary)" style="text;whiteSpace=wrap;align=center;" vertex="1" parent="1">
          <mxGeometry x="650" y="690" width="100" height="40" as="geometry" />
        </mxCell>
        <mxCell id="THEJkEJSOx_dDSsdTkwO-97" value="25%" style="text;whiteSpace=wrap;align=center;" vertex="1" parent="1">
          <mxGeometry x="710" y="600" width="100" height="40" as="geometry" />
        </mxCell>
        <mxCell id="THEJkEJSOx_dDSsdTkwO-98" value="50%" style="text;whiteSpace=wrap;align=center;" vertex="1" parent="1">
          <mxGeometry x="850" y="600" width="100" height="40" as="geometry" />
        </mxCell>
        <mxCell id="THEJkEJSOx_dDSsdTkwO-99" value="75%" style="text;whiteSpace=wrap;align=center;" vertex="1" parent="1">
          <mxGeometry x="1000" y="600" width="100" height="40" as="geometry" />
        </mxCell>
        <mxCell id="THEJkEJSOx_dDSsdTkwO-100" value="100%" style="text;whiteSpace=wrap;align=center;" vertex="1" parent="1">
          <mxGeometry x="1100" y="600" width="100" height="40" as="geometry" />
        </mxCell>
        <mxCell id="THEJkEJSOx_dDSsdTkwO-101" value="0%" style="text;whiteSpace=wrap;align=center;" vertex="1" parent="1">
          <mxGeometry x="580" y="600" width="100" height="40" as="geometry" />
        </mxCell>
        <mxCell id="THEJkEJSOx_dDSsdTkwO-103" value="Moderately important&#xa;(useful)" style="text;whiteSpace=wrap;align=center;" vertex="1" parent="1">
          <mxGeometry x="765" y="690" width="130" height="40" as="geometry" />
        </mxCell>
        <mxCell id="THEJkEJSOx_dDSsdTkwO-104" value="Important&#xa;(desirable)" style="text;whiteSpace=wrap;align=center;" vertex="1" parent="1">
          <mxGeometry x="900" y="690" width="130" height="40" as="geometry" />
        </mxCell>
        <mxCell id="THEJkEJSOx_dDSsdTkwO-105" value="Very important&#xa;(mandatory)" style="text;whiteSpace=wrap;align=center;" vertex="1" parent="1">
          <mxGeometry x="1040" y="690" width="100" height="40" as="geometry" />
        </mxCell>
      </root>
    </mxGraphModel>
  </diagram>
</mxfile>
